<svg width="72" height="75" viewBox="0 0 72 75" fill="none" xmlns="http://www.w3.org/2000/svg">
<path d="M71.2302 32.9318L37.753 0.710745C36.7778 -0.236915 35.2223 -0.236915 34.247 0.710745L0.771114 32.9306C0.278283 33.4047 0 34.0581 0 34.741C0 36.1307 1.13017 37.2571 2.5241 37.2571H6.97284V72.4838C6.97284 73.8735 8.10285 75 9.49694 75H27.1657C28.5598 75 29.6898 73.8735 29.6898 72.4838V52.3543H42.3103V72.4838C42.3103 73.8735 43.4403 75 44.8344 75H62.5031C63.8972 75 65.0272 73.8735 65.0272 72.4838V37.2571H69.476C70.1603 37.2571 70.8152 36.9802 71.2908 36.4897C72.2596 35.4905 72.2324 33.8976 71.2302 32.9318ZM65.0272 34.741C63.6331 34.741 62.5031 35.8674 62.5031 37.2571V72.4838H44.8344V52.3543C44.8344 50.9646 43.7044 49.8381 42.3103 49.8381H29.6898C28.2957 49.8381 27.1657 50.9646 27.1657 52.3543V72.4838H9.49694V37.2571C9.49694 35.8674 8.36693 34.741 6.97284 34.741H2.5241L36 2.52114L69.4886 34.741H65.0272Z" fill="white"/>
</svg>
