<svg width="95" height="43" viewBox="0 0 95 43" fill="none" xmlns="http://www.w3.org/2000/svg">
<path d="M14.9609 37V2.875H26.1172C29.8203 2.875 32.6016 3.64063 34.4609 5.17188C36.3359 6.70312 37.2734 8.96875 37.2734 11.9688C37.2734 13.5625 36.8203 14.9766 35.9141 16.2109C35.0078 17.4297 33.7734 18.375 32.2109 19.0469C34.0547 19.5625 35.5078 20.5469 36.5703 22C37.6484 23.4375 38.1875 25.1562 38.1875 27.1562C38.1875 30.2188 37.1953 32.625 35.2109 34.375C33.2266 36.125 30.4219 37 26.7969 37H14.9609ZM19.4609 21.0391V33.3203H26.8906C28.9844 33.3203 30.6328 32.7812 31.8359 31.7031C33.0547 30.6094 33.6641 29.1094 33.6641 27.2031C33.6641 23.0938 31.4297 21.0391 26.9609 21.0391H19.4609ZM19.4609 17.4297H26.2578C28.2266 17.4297 29.7969 16.9375 30.9688 15.9531C32.1562 14.9688 32.75 13.6328 32.75 11.9453C32.75 10.0703 32.2031 8.71094 31.1094 7.86719C30.0156 7.00781 28.3516 6.57812 26.1172 6.57812H19.4609V17.4297ZM54.9219 21.7891C51.0625 20.6797 48.25 19.3203 46.4844 17.7109C44.7344 16.0859 43.8594 14.0859 43.8594 11.7109C43.8594 9.02344 44.9297 6.80469 47.0703 5.05469C49.2266 3.28906 52.0234 2.40625 55.4609 2.40625C57.8047 2.40625 59.8906 2.85937 61.7188 3.76562C63.5625 4.67188 64.9844 5.92188 65.9844 7.51562C67 9.10938 67.5078 10.8516 67.5078 12.7422H62.9844C62.9844 10.6797 62.3281 9.0625 61.0156 7.89062C59.7031 6.70312 57.8516 6.10938 55.4609 6.10938C53.2422 6.10938 51.5078 6.60156 50.2578 7.58594C49.0234 8.55469 48.4062 9.90625 48.4062 11.6406C48.4062 13.0312 48.9922 14.2109 50.1641 15.1797C51.3516 16.1328 53.3594 17.0078 56.1875 17.8047C59.0312 18.6016 61.25 19.4844 62.8438 20.4531C64.4531 21.4062 65.6406 22.5234 66.4062 23.8047C67.1875 25.0859 67.5781 26.5938 67.5781 28.3281C67.5781 31.0938 66.5 33.3125 64.3438 34.9844C62.1875 36.6406 59.3047 37.4688 55.6953 37.4688C53.3516 37.4688 51.1641 37.0234 49.1328 36.1328C47.1016 35.2266 45.5312 33.9922 44.4219 32.4297C43.3281 30.8672 42.7812 29.0938 42.7812 27.1094H47.3047C47.3047 29.1719 48.0625 30.8047 49.5781 32.0078C51.1094 33.1953 53.1484 33.7891 55.6953 33.7891C58.0703 33.7891 59.8906 33.3047 61.1562 32.3359C62.4219 31.3672 63.0547 30.0469 63.0547 28.375C63.0547 26.7031 62.4688 25.4141 61.2969 24.5078C60.125 23.5859 58 22.6797 54.9219 21.7891ZM77.8906 33.3203H94.0625V37H73.3672V2.875H77.8906V33.3203Z" fill="white"/>
<mask id="mask0" mask-type="alpha" maskUnits="userSpaceOnUse" x="-19" y="-49" width="33" height="92">
<rect x="-19" y="-49" width="33" height="92" fill="#C4C4C4"/>
</mask>
<g mask="url(#mask0)">
<path d="M25 32.0749C25 32.8863 24.6875 33.6898 24.0804 34.4394C23.4733 35.189 22.5835 35.8702 21.4617 36.4439C20.3399 37.0176 19.0081 37.4728 17.5424 37.7833C16.0767 38.0938 14.5058 38.2536 12.9194 38.2536C11.3329 38.2536 9.76201 38.0938 8.29632 37.7833C6.83063 37.4728 5.49887 37.0176 4.37708 36.4439C3.2553 35.8702 2.36544 35.189 1.75834 34.4394C1.15123 33.6898 0.838753 32.8863 0.838753 32.0749L12.9194 32.0749H25Z" fill="white"/>
<path d="M25 32.1672C25 28.4985 23.7272 24.9801 21.4617 22.386C19.1961 19.7918 16.1234 18.3345 12.9194 18.3345C9.7154 18.3345 6.64264 19.7918 4.37709 22.386C2.11153 24.9801 0.838753 28.4985 0.838753 32.1672L12.9194 32.1672H25Z" fill="white"/>
<rect x="9.87618" y="4.31726" width="5.90198" height="17.5215" fill="white"/>
<rect x="8.76954" y="0.812927" width="8.11523" height="5.34867" fill="white"/>
</g>
</svg>
