<svg width="72" height="57" viewBox="0 0 72 57" fill="none" xmlns="http://www.w3.org/2000/svg">
<path d="M68.3075 0H3.69238C1.66148 0 0 1.97059 0 4.37917V52.5509C0 54.9593 1.66148 56.9302 3.69238 56.9302H68.3076C70.3382 56.9302 72 54.9596 72 52.5509V4.37917C71.9999 1.97059 70.3384 0 68.3075 0ZM66.9219 3.28421L38.1239 28.9031C37.6061 29.3704 36.8113 29.6628 35.9998 29.6585C35.1884 29.6628 34.3937 29.3704 33.8758 28.9031L5.07782 3.28421H66.9219ZM51.539 30.5935L67.2313 53.5846C67.247 53.6077 67.2663 53.6252 67.283 53.646H4.71683C4.73343 53.6242 4.75283 53.6077 4.76858 53.5846L20.4609 30.5935C20.9417 29.8885 20.8506 28.8549 20.255 28.2833C19.6606 27.7131 18.7892 27.8212 18.3082 28.5263L2.76918 51.293V5.33703L32.2152 31.5303C33.322 32.508 34.6686 32.9384 35.9996 32.9427C37.3288 32.9394 38.6766 32.509 39.7841 31.5303L69.2301 5.33703V51.2927L53.6915 28.5263C53.2106 27.8213 52.3383 27.7129 51.7447 28.2833C51.1493 28.8536 51.0579 29.8885 51.539 30.5935Z" fill="white"/>
</svg>
