<svg width="72" height="117" viewBox="0 0 72 117" fill="none" xmlns="http://www.w3.org/2000/svg">
<path d="M53.617 24.2385L53.617 3.33601C53.617 1.49335 55.3326 -2.59822e-07 57.4468 -1.67405e-07C59.5611 -7.49883e-08 61.2766 1.49335 61.2766 3.33601L61.2766 24.2385C61.2766 26.0811 59.5611 27.5745 57.4468 27.5745C55.3326 27.5745 53.617 26.0811 53.617 24.2385Z" fill="white"/>
<path d="M41.3617 36.766C41.3617 28.3187 48.2336 21.4468 56.68 21.4468C65.1281 21.4468 72 28.3187 72 36.766C72 45.2132 65.1281 52.0851 56.68 52.0851C48.2333 52.0851 41.3617 45.2132 41.3617 36.766ZM65.311 36.766C65.311 32.0071 61.4388 28.1357 56.68 28.1357C51.9212 28.1357 48.0507 32.0071 48.0507 36.766C48.0507 41.5248 51.9212 45.3963 56.68 45.3963C61.4388 45.3963 65.311 41.5248 65.311 36.766Z" fill="white"/>
<path d="M53.617 112.991L53.617 61.648C53.617 59.7505 55.3326 58.2128 57.4468 58.2128C59.5611 58.2128 61.2766 59.7505 61.2766 61.648L61.2766 112.99C61.2766 114.888 59.5611 116.426 57.4468 116.426C55.3326 116.426 53.617 114.888 53.617 112.991Z" fill="white"/>
<path d="M1.45557e-05 83.4893C1.49434e-05 74.6195 7.21588 67.4042 16.0851 67.4042C24.9544 67.4042 32.1702 74.6197 32.1702 83.4893C32.1702 92.3589 24.9544 99.5744 16.0851 99.5744C7.21587 99.5744 1.4168e-05 92.3592 1.45557e-05 83.4893ZM25.1463 83.4893C25.1463 78.4925 21.0822 74.4275 16.0851 74.4275C11.0881 74.4275 7.02392 78.4925 7.02392 83.4893C7.02392 88.4861 11.0881 92.5512 16.0851 92.5512C21.0822 92.5512 25.1463 88.4861 25.1463 83.4893Z" fill="white"/>
<path d="M12.2553 57.8846L12.2553 3.392C12.2553 1.51842 13.6277 -2.07858e-07 15.3192 -1.33924e-07C17.0106 -5.99906e-08 18.383 1.51842 18.383 3.392L18.383 57.8846C18.383 59.7582 17.0106 61.2766 15.3191 61.2766C13.6277 61.2766 12.2553 59.7582 12.2553 57.8846Z" fill="white"/>
<path d="M12.2553 112.996L12.2553 95.3444C12.2553 93.4501 13.6277 91.9149 15.3192 91.9149C17.0106 91.9149 18.383 93.4501 18.383 95.3444L18.383 112.996C18.383 114.89 17.0106 116.426 15.3192 116.426C13.6277 116.426 12.2553 114.89 12.2553 112.996Z" fill="white"/>
</svg>
